<mxfile host="app.diagrams.net" modified="2021-02-03T07:35:01.083Z" agent="5.0 (Windows NT 10.0; Win64; x64) AppleWebKit/537.36 (KHTML, like Gecko) Chrome/87.0.4280.141 Safari/537.36" etag="9vU10aqaGYRw8BSb71M4" version="14.2.9" type="github">
  <diagram id="lnBXNk9ades9k_pJP3SM" name="Page-1">
    <mxGraphModel dx="2062" dy="1122" grid="1" gridSize="10" guides="1" tooltips="1" connect="1" arrows="1" fold="1" page="1" pageScale="1" pageWidth="827" pageHeight="1169" math="0" shadow="0">
      <root>
        <mxCell id="0" />
        <mxCell id="1" parent="0" />
        <mxCell id="HddSMGoKJ63HF4b9yRRk-1" value="" style="ellipse;whiteSpace=wrap;html=1;" vertex="1" parent="1">
          <mxGeometry x="210" y="260" width="120" height="80" as="geometry" />
        </mxCell>
        <mxCell id="HddSMGoKJ63HF4b9yRRk-2" value="" style="shape=parallelogram;perimeter=parallelogramPerimeter;whiteSpace=wrap;html=1;fixedSize=1;" vertex="1" parent="1">
          <mxGeometry x="290" y="460" width="120" height="60" as="geometry" />
        </mxCell>
        <mxCell id="HddSMGoKJ63HF4b9yRRk-3" value="" style="shape=tape;whiteSpace=wrap;html=1;" vertex="1" parent="1">
          <mxGeometry x="560" y="320" width="120" height="100" as="geometry" />
        </mxCell>
        <mxCell id="HddSMGoKJ63HF4b9yRRk-4" value="Cross-Functional Flowchart" style="shape=table;childLayout=tableLayout;rowLines=0;columnLines=0;startSize=0;html=1;whiteSpace=wrap;collapsible=0;recursiveResize=0;expand=0;pointerEvents=0;fontStyle=1;align=center;" vertex="1" parent="1">
          <mxGeometry x="480" y="50" width="400" height="400" as="geometry" />
        </mxCell>
        <mxCell id="HddSMGoKJ63HF4b9yRRk-5" value="Actor 1" style="swimlane;horizontal=0;points=[[0,0.5],[1,0.5]];portConstraint=eastwest;startSize=40;html=1;whiteSpace=wrap;collapsible=0;recursiveResize=0;expand=0;pointerEvents=0;fontStyle=1" vertex="1" parent="HddSMGoKJ63HF4b9yRRk-4">
          <mxGeometry width="400" height="133" as="geometry" />
        </mxCell>
        <mxCell id="HddSMGoKJ63HF4b9yRRk-6" value="Phase 1" style="swimlane;connectable=0;startSize=40;html=1;whiteSpace=wrap;collapsible=0;recursiveResize=0;expand=0;pointerEvents=0;" vertex="1" parent="HddSMGoKJ63HF4b9yRRk-5">
          <mxGeometry x="40" width="120" height="133" as="geometry" />
        </mxCell>
        <mxCell id="HddSMGoKJ63HF4b9yRRk-7" value="Phase 2" style="swimlane;connectable=0;startSize=60;html=1;whiteSpace=wrap;collapsible=0;recursiveResize=0;expand=0;pointerEvents=0;" vertex="1" parent="HddSMGoKJ63HF4b9yRRk-5">
          <mxGeometry x="160" width="120" height="133" as="geometry" />
        </mxCell>
        <mxCell id="HddSMGoKJ63HF4b9yRRk-8" value="Phase 3" style="swimlane;connectable=0;startSize=40;html=1;whiteSpace=wrap;collapsible=0;recursiveResize=0;expand=0;pointerEvents=0;" vertex="1" parent="HddSMGoKJ63HF4b9yRRk-5">
          <mxGeometry x="280" width="120" height="133" as="geometry" />
        </mxCell>
        <mxCell id="HddSMGoKJ63HF4b9yRRk-9" value="Actor 2" style="swimlane;horizontal=0;points=[[0,0.5],[1,0.5]];portConstraint=eastwest;startSize=40;html=1;whiteSpace=wrap;collapsible=0;recursiveResize=0;expand=0;pointerEvents=0;" vertex="1" parent="HddSMGoKJ63HF4b9yRRk-4">
          <mxGeometry y="133" width="400" height="134" as="geometry" />
        </mxCell>
        <mxCell id="HddSMGoKJ63HF4b9yRRk-10" value="" style="swimlane;connectable=0;startSize=0;html=1;whiteSpace=wrap;collapsible=0;recursiveResize=0;expand=0;pointerEvents=0;" vertex="1" parent="HddSMGoKJ63HF4b9yRRk-9">
          <mxGeometry x="40" width="120" height="134" as="geometry" />
        </mxCell>
        <mxCell id="HddSMGoKJ63HF4b9yRRk-11" value="" style="swimlane;connectable=0;startSize=0;html=1;whiteSpace=wrap;collapsible=0;recursiveResize=0;expand=0;pointerEvents=0;" vertex="1" parent="HddSMGoKJ63HF4b9yRRk-9">
          <mxGeometry x="160" width="120" height="134" as="geometry" />
        </mxCell>
        <mxCell id="HddSMGoKJ63HF4b9yRRk-12" value="" style="swimlane;connectable=0;startSize=0;html=1;whiteSpace=wrap;collapsible=0;recursiveResize=0;expand=0;pointerEvents=0;" vertex="1" parent="HddSMGoKJ63HF4b9yRRk-9">
          <mxGeometry x="280" width="120" height="134" as="geometry" />
        </mxCell>
        <mxCell id="HddSMGoKJ63HF4b9yRRk-13" value="Actor 3" style="swimlane;horizontal=0;points=[[0,0.5],[1,0.5]];portConstraint=eastwest;startSize=40;html=1;whiteSpace=wrap;collapsible=0;recursiveResize=0;expand=0;pointerEvents=0;" vertex="1" parent="HddSMGoKJ63HF4b9yRRk-4">
          <mxGeometry y="267" width="400" height="133" as="geometry" />
        </mxCell>
        <mxCell id="HddSMGoKJ63HF4b9yRRk-14" value="" style="swimlane;connectable=0;startSize=0;html=1;whiteSpace=wrap;collapsible=0;recursiveResize=0;expand=0;pointerEvents=0;" vertex="1" parent="HddSMGoKJ63HF4b9yRRk-13">
          <mxGeometry x="40" width="120" height="133" as="geometry" />
        </mxCell>
        <mxCell id="HddSMGoKJ63HF4b9yRRk-15" value="" style="swimlane;connectable=0;startSize=0;html=1;whiteSpace=wrap;collapsible=0;recursiveResize=0;expand=0;pointerEvents=0;" vertex="1" parent="HddSMGoKJ63HF4b9yRRk-13">
          <mxGeometry x="160" width="120" height="133" as="geometry" />
        </mxCell>
        <mxCell id="HddSMGoKJ63HF4b9yRRk-16" value="" style="swimlane;connectable=0;startSize=0;html=1;whiteSpace=wrap;collapsible=0;recursiveResize=0;expand=0;pointerEvents=0;" vertex="1" parent="HddSMGoKJ63HF4b9yRRk-13">
          <mxGeometry x="280" width="120" height="133" as="geometry" />
        </mxCell>
        <mxCell id="HddSMGoKJ63HF4b9yRRk-17" value="" style="shape=table;html=1;whiteSpace=wrap;startSize=0;container=1;collapsible=0;childLayout=tableLayout;" vertex="1" parent="1">
          <mxGeometry x="200" y="50" width="180" height="120" as="geometry" />
        </mxCell>
        <mxCell id="HddSMGoKJ63HF4b9yRRk-18" value="" style="shape=partialRectangle;html=1;whiteSpace=wrap;collapsible=0;dropTarget=0;pointerEvents=0;fillColor=none;top=0;left=0;bottom=0;right=0;points=[[0,0.5],[1,0.5]];portConstraint=eastwest;" vertex="1" parent="HddSMGoKJ63HF4b9yRRk-17">
          <mxGeometry width="180" height="40" as="geometry" />
        </mxCell>
        <mxCell id="HddSMGoKJ63HF4b9yRRk-19" value="" style="shape=partialRectangle;html=1;whiteSpace=wrap;connectable=0;fillColor=none;top=0;left=0;bottom=0;right=0;overflow=hidden;" vertex="1" parent="HddSMGoKJ63HF4b9yRRk-18">
          <mxGeometry width="60" height="40" as="geometry" />
        </mxCell>
        <mxCell id="HddSMGoKJ63HF4b9yRRk-20" value="" style="shape=partialRectangle;html=1;whiteSpace=wrap;connectable=0;fillColor=none;top=0;left=0;bottom=0;right=0;overflow=hidden;" vertex="1" parent="HddSMGoKJ63HF4b9yRRk-18">
          <mxGeometry x="60" width="60" height="40" as="geometry" />
        </mxCell>
        <mxCell id="HddSMGoKJ63HF4b9yRRk-21" value="" style="shape=partialRectangle;html=1;whiteSpace=wrap;connectable=0;fillColor=none;top=0;left=0;bottom=0;right=0;overflow=hidden;" vertex="1" parent="HddSMGoKJ63HF4b9yRRk-18">
          <mxGeometry x="120" width="60" height="40" as="geometry" />
        </mxCell>
        <mxCell id="HddSMGoKJ63HF4b9yRRk-22" value="" style="shape=partialRectangle;html=1;whiteSpace=wrap;collapsible=0;dropTarget=0;pointerEvents=0;fillColor=none;top=0;left=0;bottom=0;right=0;points=[[0,0.5],[1,0.5]];portConstraint=eastwest;" vertex="1" parent="HddSMGoKJ63HF4b9yRRk-17">
          <mxGeometry y="40" width="180" height="40" as="geometry" />
        </mxCell>
        <mxCell id="HddSMGoKJ63HF4b9yRRk-23" value="" style="shape=partialRectangle;html=1;whiteSpace=wrap;connectable=0;fillColor=none;top=0;left=0;bottom=0;right=0;overflow=hidden;" vertex="1" parent="HddSMGoKJ63HF4b9yRRk-22">
          <mxGeometry width="60" height="40" as="geometry" />
        </mxCell>
        <mxCell id="HddSMGoKJ63HF4b9yRRk-24" value="" style="shape=partialRectangle;html=1;whiteSpace=wrap;connectable=0;fillColor=none;top=0;left=0;bottom=0;right=0;overflow=hidden;" vertex="1" parent="HddSMGoKJ63HF4b9yRRk-22">
          <mxGeometry x="60" width="60" height="40" as="geometry" />
        </mxCell>
        <mxCell id="HddSMGoKJ63HF4b9yRRk-25" value="" style="shape=partialRectangle;html=1;whiteSpace=wrap;connectable=0;fillColor=none;top=0;left=0;bottom=0;right=0;overflow=hidden;" vertex="1" parent="HddSMGoKJ63HF4b9yRRk-22">
          <mxGeometry x="120" width="60" height="40" as="geometry" />
        </mxCell>
        <mxCell id="HddSMGoKJ63HF4b9yRRk-26" value="" style="shape=partialRectangle;html=1;whiteSpace=wrap;collapsible=0;dropTarget=0;pointerEvents=0;fillColor=none;top=0;left=0;bottom=0;right=0;points=[[0,0.5],[1,0.5]];portConstraint=eastwest;" vertex="1" parent="HddSMGoKJ63HF4b9yRRk-17">
          <mxGeometry y="80" width="180" height="40" as="geometry" />
        </mxCell>
        <mxCell id="HddSMGoKJ63HF4b9yRRk-27" value="" style="shape=partialRectangle;html=1;whiteSpace=wrap;connectable=0;fillColor=none;top=0;left=0;bottom=0;right=0;overflow=hidden;" vertex="1" parent="HddSMGoKJ63HF4b9yRRk-26">
          <mxGeometry width="60" height="40" as="geometry" />
        </mxCell>
        <mxCell id="HddSMGoKJ63HF4b9yRRk-28" value="" style="shape=partialRectangle;html=1;whiteSpace=wrap;connectable=0;fillColor=none;top=0;left=0;bottom=0;right=0;overflow=hidden;" vertex="1" parent="HddSMGoKJ63HF4b9yRRk-26">
          <mxGeometry x="60" width="60" height="40" as="geometry" />
        </mxCell>
        <mxCell id="HddSMGoKJ63HF4b9yRRk-29" value="" style="shape=partialRectangle;html=1;whiteSpace=wrap;connectable=0;fillColor=none;top=0;left=0;bottom=0;right=0;overflow=hidden;" vertex="1" parent="HddSMGoKJ63HF4b9yRRk-26">
          <mxGeometry x="120" width="60" height="40" as="geometry" />
        </mxCell>
        <mxCell id="HddSMGoKJ63HF4b9yRRk-30" value="" style="ellipse;shape=doubleEllipse;whiteSpace=wrap;html=1;aspect=fixed;" vertex="1" parent="1">
          <mxGeometry x="160" y="520" width="80" height="80" as="geometry" />
        </mxCell>
        <mxCell id="HddSMGoKJ63HF4b9yRRk-31" value="" style="html=1;whiteSpace=wrap;aspect=fixed;shape=isoRectangle;" vertex="1" parent="1">
          <mxGeometry x="150" y="830" width="150" height="90" as="geometry" />
        </mxCell>
        <mxCell id="HddSMGoKJ63HF4b9yRRk-32" value="" style="shape=image;html=1;verticalLabelPosition=bottom;verticalAlign=top;imageAspect=0;image=img/clipart/Gear_128x128.png" vertex="1" parent="1">
          <mxGeometry x="350" y="830" width="50" height="60" as="geometry" />
        </mxCell>
      </root>
    </mxGraphModel>
  </diagram>
</mxfile>
